<svg width="99" height="199" viewBox="0 0 99 199" fill="none" xmlns="http://www.w3.org/2000/svg">
    <g clip-path="url(#clip0_8_76)">
        <path d="M42.8702 177.443L48.2429 177.443L46.5111 191.425L42.8709 191.425L42.8702 177.443Z"
            fill="#A0616A" />
        <path
            d="M47.7225 191.751C48.4487 192.52 54.1475 195.428 53.8583 196.774C53.8583 197.212 53.6736 197.607 53.3751 197.886C53.1013 198.149 52.7289 198.309 52.3197 198.309H45.4669L45.2546 197.871L44.2853 195.879L43.9099 197.871L43.8268 198.309H41.242L41.279 197.867L41.9682 189.637L42.8698 189.582L46.7655 189.352L47.7225 189.294L47.7225 191.751Z"
            fill="#2F2E41" />
        <path d="M65.6397 141.789L69.099 145.883L57.2402 153.565L54.8964 150.792L65.6397 141.789Z"
            fill="#A0616A" />
        <path
            d="M57.7693 154.698C57.6458 155.747 59.0805 161.961 57.8607 162.607C57.524 162.889 57.1014 163.003 56.6949 162.955C56.3161 162.916 55.954 162.735 55.6905 162.423L51.2784 157.202L51.4784 156.758L52.3848 154.737L50.6127 155.733L50.2225 155.952L48.5583 153.982L48.9211 153.726L55.6891 148.953L56.312 149.604L58.9967 152.424L59.6576 153.116L57.7693 154.698Z"
            fill="#2F2E41" />
        <path
            d="M46.6966 90.5657L71.169 80.1802C65.8814 73.4373 68.2104 62.6703 68.1511 51.4582L43.4239 52.1824C43.853 60.8914 46.113 69.8417 39.2607 80.1802L37.2421 85.8583L46.6966 90.5657Z"
            fill="#A0616A" />
        <path
            d="M71.169 80.1802L71.0602 97.0836L53.6687 109.004L49.2421 177.833L41.9693 178.196L39.4239 157.193L31.9671 116.216C31.9671 116.216 32.5148 113.741 31.5243 113.782C30.5338 113.824 32.1512 111.206 31.053 111.193C30.7099 111.189 30.4398 110.411 30.2308 109.342C29.5595 105.913 29.9738 102.36 31.3241 99.1355L39.2607 80.1802C49.6475 85.3578 60.3083 84.8448 71.169 80.1802Z"
            fill="#2F2E41" />
        <path
            d="M65.3852 93.7185L51.1948 106.81C51.1948 106.81 66.6966 113.378 65.2819 114.323C63.8672 115.268 67.0656 114.954 67.0656 114.954L76.7352 122.296L82.2816 124.996L62.3955 141.93L70.1898 148.397L93.5355 130.634C96.8404 129.289 99 126.087 99 122.532C99 119.376 97.2945 116.103 94.536 114.55L71.0602 97.0836L65.3852 93.7185Z"
            fill="#2F2E41" />
        <path
            d="M68.9558 67.1147C70.1242 66.8386 69.242 66.6667 69.0141 66.6345C68.7863 66.6023 68.8784 65.5804 69.099 65.9356C69.3196 66.2908 71.1535 49.0102 71.1535 49.0102C72.5098 45.5406 76.5703 38.6612 73.242 36.9739L61.6056 31.5423L50.6966 31.9044L39.0602 36.6118C36.9713 38.6696 39.1081 44.0338 40.2552 47.4497L41.3056 54.7814C41.3056 54.7814 43.4239 63.4077 42.6178 63.9403C41.8116 64.4729 42.7207 64.6588 42.7207 64.6588C42.7207 64.6588 44.1512 64.1319 42.8648 65.6648C44.0431 67.7192 40.301 79.9795 38.9431 79.6921C45.8786 86.6178 59.8295 84.4011 70.2158 77.5194C70.2158 77.5194 67.7875 67.3909 68.9558 67.1147Z"
            fill="#1D84B5" />
        <path
            d="M31.1902 56.7553L47.4573 58.284L47.2714 63.9775L26.7211 62.0711C24.2448 61.8413 22.4939 59.5527 22.934 57.1153C23.8179 52.2208 32.6457 41.2304 34.1242 39.0079C36.3962 35.5925 39.4776 46.7426 39.4776 46.7426L31.1902 56.7553Z"
            fill="#A0616A" />
        <path
            d="M49.4087 64.558C47.1996 64.558 45.4087 62.7747 45.4087 60.5748C45.4087 58.375 47.1996 56.5916 49.4087 56.5916C51.6178 56.5916 53.4087 58.375 53.4087 60.5748C53.4087 62.7747 51.6178 64.558 49.4087 64.558Z"
            fill="#A0616A" />
        <path
            d="M69.0991 36.0926C69.0991 36.0926 69.0216 45.1031 72.6785 43.2262C75.0583 42.0049 91.887 38.3583 95.0574 34.5159C96.6361 32.6024 96.2296 29.7539 94.1808 28.3499L77.1784 16.6986L74.2258 21.5776L87.6748 30.8176L69.0991 36.0926Z"
            fill="#A0616A" />
        <path
            d="M73.6453 22.613C71.4362 22.613 69.6453 20.8297 69.6453 18.6298C69.6453 16.43 71.4362 14.6467 73.6453 14.6467C75.8545 14.6467 77.6453 16.43 77.6453 18.6298C77.6453 20.8297 75.8545 22.613 73.6453 22.613Z"
            fill="#A0616A" />
        <path
            d="M82.5604 31.5423L67.2914 35.9398L70.5094 45.7474C72.2773 46.3956 74.2322 45.8268 75.3727 44.3329L83.6685 40.8849L82.5604 31.5423Z"
            fill="#1D84B5" />
        <path
            d="M42.3021 35.9398L39.6111 36.2044C37.8419 35.5562 35.8879 36.1254 34.7478 37.6189L26.5933 48.0042L37.2421 52.1824L45.408 42.1015L42.3021 35.9398Z"
            fill="#1D84B5" />
        <path
            d="M54.6378 30.001C58.0876 28.7312 65.0779 33.0232 64.4741 28.7888C63.9947 25.4137 66.6669 43.1626 67.3298 42.9572C68.4945 42.595 65.2472 18.7431 65.9305 17.2057C66.0182 17.0069 66.1202 16.7971 66.2405 16.5784C66.365 16.3443 66.5057 16.0991 66.6648 15.8407C66.6689 15.834 66.675 15.8274 66.6791 15.8208C67.2299 9.80613 61.3246 4.86276 53.8365 5.48123H53.8304C53.0696 5.54087 52.2842 5.66677 51.4948 5.8479H47.7742C47.3724 5.8479 46.9787 5.87219 46.5891 5.91637C45.0898 6.09087 43.6926 6.6011 42.4667 7.36537C40.8185 8.39468 39.7925 10.2236 39.6313 12.0392C39.5049 13.4286 39.8863 14.8113 40.8777 15.8208L40.8899 15.823C40.7594 16.3818 40.6676 16.9539 40.6125 17.537C40.5697 17.9567 40.5513 18.383 40.5513 18.8115C40.5513 18.8999 40.5513 18.9904 40.5574 19.0766C40.6574 24.391 43.9007 28.9213 48.4739 30.821C48.5126 30.8371 48.5537 30.8535 48.5967 30.8702C49.8211 31.3434 50.5374 31.2007 51.806 30.8928C52.7823 30.6558 53.7204 30.3387 54.6378 30.001Z"
            fill="#2F2E41" />
        <path
            d="M54.7366 28.348C49.8724 28.348 45.9291 24.4213 45.9291 19.5776C45.9291 14.7338 49.8724 10.8071 54.7366 10.8071C59.6008 10.8071 63.5441 14.7338 63.5441 19.5776C63.5441 24.4213 59.6008 28.348 54.7366 28.348Z"
            fill="#A0616A" />
        <path
            d="M62.3955 15.8688C62.3955 15.7144 62.3914 15.5641 62.3812 15.4097C62.1466 10.9552 58.4893 9.01743 53.9385 8.83665C53.8181 8.83056 53.6978 8.8265 53.5774 8.8265H50.3097C50.3097 8.47713 50.1934 8.15619 49.9915 7.90026C49.8731 7.74183 49.7222 7.60979 49.5529 7.51026C49.5488 7.51026 49.5488 7.50823 49.5468 7.50823C49.3142 7.37214 49.047 7.29292 48.7594 7.29292C48.7145 7.29292 48.6656 7.29699 48.6146 7.29902C47.9129 7.36401 47.2275 7.46964 46.5524 7.60979C46.2219 7.67886 45.8915 7.75807 45.5692 7.84542C45.5426 7.85151 45.5202 7.85761 45.4937 7.8637C44.4289 8.1562 43.4029 8.53807 42.4299 9.00931C41.3427 9.66336 40.3942 10.5124 39.6313 11.5077C39.5048 12.7854 39.8863 14.0569 40.8776 14.9852L40.8899 14.9872C40.7593 15.5011 40.6675 16.0272 40.6124 16.5634C40.5696 16.9494 40.5513 17.3414 40.5513 17.7355C40.5513 17.8167 40.5513 17.9 40.5574 17.9792C40.6573 22.8663 44.6023 41.4135 49.1755 43.1603C48.9083 41.9842 47.9721 26.685 47.8354 26.2544C45.7385 19.6997 47.2887 17.8655 50.3097 15.8688H53.2429C53.8141 15.0156 54.0956 13.9716 54.0201 12.9479C54.426 13.8721 54.6504 14.8674 54.6912 15.8688C56.1476 17.7822 58.5484 17.6339 61.496 16.3034C61.651 16.2344 61.804 16.1613 61.9569 16.0881C62.1038 16.017 62.2486 15.9459 62.3955 15.8688Z"
            fill="#2F2E41" />
        <path
            d="M43.0759 16.2214C39.8714 16.2214 37.2735 13.6344 37.2735 10.4433C37.2735 7.25222 39.8714 4.66531 43.0759 4.66531C46.2805 4.66531 48.8784 7.25222 48.8784 10.4433C48.8784 13.6344 46.2805 16.2214 43.0759 16.2214Z"
            fill="#2F2E41" />
        <path
            d="M46.7976 0.777473C44.318 2.79897 40.5419 1.90576 39.7747 5.00406C39.0074 8.10236 40.9077 11.2334 44.0191 11.9974C47.1305 12.7614 50.3828 10.8937 51.042 7.77083C51.931 3.55939 50.3053 -2.08223 46.7976 0.777473Z"
            fill="#2F2E41" />
    </g>
    <defs>
        <clipPath id="clip0_8_76">
            <rect width="99" height="199" fill="white" transform="matrix(-1 0 0 1 99 0)" />
        </clipPath>
    </defs>
</svg>